# xmcd CD database file
#
# Track frame offsets:
#	150
#	10578
#	20237
#	32188
#	42893
#	54670
#	64735
#	75022
#	85564
#	96965
#	108990
#	119321
#	130503
#	141244
#	151467
#	163605
#	172296
#	184953
#	195507
#	205466
#	216276
#	227036
#
# Disc length: 3169 seconds
#
# Revision: 0
# Processed by: cddbd v1.5.2PL0 Copyright (c) Steve Scherf et al.
# Submitted via: CDex 1.51
#
DISCID=2b0c5f16
DTITLE=Various Artist - Ghetto Beat Volume 3
DYEAR=2000
DGENRE=Blues
TTITLE0=Ruth Brown-Mama He Treats Your Daughter Mean
TTITLE1=Piano Red-One Glimpse Of Heaven
TTITLE2=The Eagles-Tryin' To Get To You
TTITLE3=The Clouds-Rock n' Roll Boogie
TTITLE4=The Turkes-I've Been Accused
TTITLE5=The Golden Gate Quartet-I Found Out
TTITLE6=The Drifters-I Gotta Get Myself A Woman
TTITLE7=Big Amos Paton-Move With Me Baby
TTITLE8=Herman Gillespie-Kiss Kiss
TTITLE9=Alonzo Scales-My Baby Like To Shuffle
TTITLE10=Jimmy Griffin-Little Mary
TTITLE11=Johnny Wright-Little Mary
TTITLE12=Big Lucky Carter-Stop Arguing Over Me
TTITLE13=Young Jessie-It Don't Happen No More
TTITLE14=Homesick James-The Woman I Love
TTITLE15=Little Sonny-Love Shock
TTITLE16=Chuck Willis-I Rule My House
TTITLE17=The Gents-Good Golly Dolly
TTITLE18=Lavern Baker-Whipper Snapper
TTITLE19=Jimmie More-So Glad
TTITLE20=The Chords-Lover Lover Lover
TTITLE21=Etta James-Baby Baby Everynight
EXTD=YEAR: 2000
EXTT0=
EXTT1=
EXTT2=
EXTT3=
EXTT4=
EXTT5=
EXTT6=
EXTT7=
EXTT8=
EXTT9=
EXTT10=
EXTT11=
EXTT12=
EXTT13=
EXTT14=
EXTT15=
EXTT16=
EXTT17=
EXTT18=
EXTT19=
EXTT20=
EXTT21=
PLAYORDER=
